<svg id="Layer_1" data-name="Layer 1" xmlns="http://www.w3.org/2000/svg" viewBox="0 0 271.94 302.96"><defs><style>.cls-1{fill:#f5ddbe;}.cls-2{fill:#72c163;}.cls-3{fill:#913e3f;}.cls-4{fill:#3d3d3e;}.cls-5{fill:#231f20;}.cls-6{fill:#514744;}</style></defs><title>dude</title><path class="cls-1" d="M203.94,189.41a51.9,51.9,0,0,1-9.88-.84,4.5,4.5,0,0,1,1.86-8.81c.3.06,21.25,4.14,39.38-9.57C251.37,158,260.67,135.86,263,104.28a4.5,4.5,0,1,1,9,.65c-2.49,34.36-13,58.76-31.33,72.53A60.73,60.73,0,0,1,203.94,189.41Z"/><path class="cls-1" d="M104.31,29.93S205,15.75,203.11,131.2s-1.88,115.45-11.3,118.14-42.67,14.8-127,9.42c0,0-15.69-1.35-22.42-22.88s-13.46-65.15-13.46-91.13S23.55,38,104.31,29.93Z"/><path class="cls-2" d="M202.58,162.88c-1.6,97-1.88,83.92-10.77,86.46-9.43,2.69-42.67,14.8-127,9.42,0,0-15.69-1.35-22.42-22.88-5.78-18.52-11.56-53.33-13.07-79.24C120.47,179.65,180.39,172.89,202.58,162.88Z"/><path class="cls-3" d="M202.58,227.2c-1.37,20-3.73,20.65-9,22.14-9.53,2.69-43.17,14.8-128.5,9.42,0,0-15.71-1.35-22.58-22.6C141.21,245.76,185.42,234.42,202.58,227.2Z"/><path class="cls-3" d="M175.69,293.69l-6.27-5c14.65-18.52,8.12-43.86,8.06-44.12l7.73-2.06C185.53,243.74,192.81,272.06,175.69,293.69Z"/><path class="cls-3" d="M64.71,293.69l-6.27-5c14.65-18.52,8.12-43.86,8.06-44.12l7.73-2.06C74.54,243.74,81.82,272.06,64.71,293.69Z"/><path class="cls-4" d="M166.34,303V284.39s28.67-6.91,42,18.57Z"/><path class="cls-4" d="M55.23,303V284.39s28.68-6.91,42,18.57Z"/><path class="cls-5" d="M29.32,156.64l-.46-97.41S27,18.84,76.23,16.15s124.49,0,124.49,0S216.24,10.77,203.13,0c0,0,17.86,6.73,17.86,40.38S90.42,72.69,90.42,72.69s-14.93-3.55-14.19,5.63S84.5,145,29.32,156.64Z"/><circle class="cls-1" cx="68.8" cy="115.84" r="13.75"/><path class="cls-1" d="M8.3,280.44a4.51,4.51,0,0,1-4.39-3.53c-7.42-33.64-4.27-60,9.34-78.46,16-21.63,40.41-23.83,41.44-23.91a4.5,4.5,0,0,1,.74,9h0c-.22,0-21.53,2.05-35,20.41C8.48,220.15,5.88,244.06,12.7,275a4.51,4.51,0,0,1-3.42,5.37A4.73,4.73,0,0,1,8.3,280.44Z"/><polygon class="cls-2" points="36.6 170.95 43.85 197.87 76.22 191.86 59.53 162.57 36.6 170.95"/><path class="cls-4" d="M183,168.64s-10.79,4.07-36.77,3.46l20.12,10.64-8.25,31.52,14.47,8.9L183,209.81l-10.43-29.59Z"/><path class="cls-6" d="M146.65,117.09a7.22,7.22,0,1,1,7.22-7.22A7.22,7.22,0,0,1,146.65,117.09Zm0-11.94a4.72,4.72,0,1,0,4.72,4.72A4.72,4.72,0,0,0,146.65,105.15Z"/><path class="cls-6" d="M184,115.82a7.49,7.49,0,1,1,7.49-7.49A7.5,7.5,0,0,1,184,115.82Zm0-12.48a5,5,0,1,0,5,5A5,5,0,0,0,184,103.34Z"/><path class="cls-6" d="M170,149.39c9.51-2.28,15.48-11.39,13.33-20.34l-34.44,8.27C151.05,146.27,160.5,151.67,170,149.39Z"/></svg>