<svg id="Layer_1" data-name="Layer 1" xmlns="http://www.w3.org/2000/svg" viewBox="0 0 171.37 114.25"><defs><style>.cls-1{fill:#eabc1b;}</style></defs><title>screwdriver-solid-logo</title><path class="cls-1" d="M171.37,58.79,145.32,40.58l-11.71,3.84L112.79,33.89a20.69,20.69,0,0,1-1.62,4.52,21.09,21.09,0,0,1-2.68,4L129.3,52.93l3.85,11.71,30.1,10.19ZM99,15.65,69.62.8a7.4,7.4,0,0,0-10,3.26L53,17.27a7.4,7.4,0,0,0,3.26,10L85.6,42.07A14.81,14.81,0,1,0,99,15.65Z" transform="translate(0 0)"/><path class="cls-1" d="M0,98.15H12.94c0,4.53,1.66,6.25,5.68,6.25,3.67,0,5.32-1.44,5.32-4.24,0-3.38-2.23-5-8.84-6.26C4.53,91.89.58,87.79.58,79c0-10.21,6.25-15.38,18.33-15.38,11.79,0,17.54,4.88,17.54,15.6H23.58c0-4-1.51-5.75-4.89-5.75S13.8,75,13.8,77.66c0,3.3,2.23,4.67,8.63,5.89,10.79,2,14.74,6.33,14.74,15.32,0,10.42-6.11,15.38-18.84,15.38S0,109.44,0,98.15Z" transform="translate(0 0)"/><path class="cls-1" d="M43.85,64.5H57.08V83.12H70V64.5H83.26v48.89H70V94.05h-13v19.34H43.85Z" transform="translate(0 0)"/><path class="cls-1" d="M92.6,64.5h13.23v48.89H92.6Z" transform="translate(0 0)"/><path class="cls-1" d="M110.5,64.5h13.8l8.13,31.78,8.12-31.78h13.09L139,113.39H125.1Z" transform="translate(0 0)"/></svg>